<svg width="66" height="62" viewBox="0 0 66 62" fill="none" xmlns="http://www.w3.org/2000/svg">
<path d="M0 10C0 4.47715 4.47715 0 10 0H56C61.5229 0 66 4.47715 66 10V52C66 57.5228 61.5228 62 56 62H10C4.47715 62 0 57.5228 0 52V10Z" fill="#37F1DD"/>
<path d="M41.854 18.5166C44.6096 20.9387 46.6858 25.8145 45.7798 29.4572C42.3573 27.2678 39.6458 24.9211 35.2418 25.739C34.4995 31.7032 36.4057 44.6759 28.1263 45.5881C17.3619 46.7772 16.9592 31.3823 26.8744 31.4326C28.7051 31.4389 30.7561 32.8859 32.7568 32.5651L34.0087 15.8176C36.6825 15.6225 39.8534 16.7613 41.854 18.5166Z" fill="#0FCEBA"/>
</svg>
